<?xml version="1.0" standalone="no"?><!DOCTYPE svg PUBLIC "-//W3C//DTD SVG 1.1//EN" "http://www.w3.org/Graphics/SVG/1.1/DTD/svg11.dtd"><svg t="1661666608370" class="icon" viewBox="0 0 1026 1024" version="1.1" xmlns="http://www.w3.org/2000/svg" p-id="14901" xmlns:xlink="http://www.w3.org/1999/xlink" width="64.125" height="64"><path d="M996.9 371 885.2 259.4c-18.2-18.2-42.4-28.2-68.1-28.2-25.7 0-49.9 10-68.1 28.2L637.7 370.8c-18.2 18.2-28.2 42.3-28.2 68.1l0 297.6c0 25.7 10 49.9 28.2 68.1 18.2 18.2 42.3 28.2 68 28.2 0 0 0.1 0 0.1 0l223.1-0.2c53 0 96.2-43.2 96.2-96.3l0-297.2C1025.1 413.4 1015.1 389.2 996.9 371zM961.1 736.3c0 17.8-14.5 32.2-32.2 32.3l-223.1 0.2c0 0 0 0 0 0-8.6 0-16.7-3.4-22.8-9.4-6.1-6.1-9.5-14.2-9.5-22.8l0-297.6c0-8.6 3.4-16.7 9.4-22.8l111.4-111.4c6.1-6.1 14.2-9.4 22.8-9.4 8.6 0 16.7 3.4 22.8 9.4l111.7 111.7c6.1 6.1 9.4 14.2 9.4 22.8L961.1 736.3z" p-id="14902"></path><path d="M672 883.5c-17.7 0-32 14.3-32 32L640 960 64 960 64 798.5c0-157.5 123.2-283.9 280.5-287.9 5-0.1 10-0.1 14.9 0 59.4 1.5 116 21 163.7 56.2 14.2 10.5 34.2 7.5 44.8-6.7 10.5-14.2 7.5-34.2-6.7-44.8-26-19.3-54.2-34.6-83.9-46 75.4-43.4 126.1-124.8 126.1-218C603.4 112.6 490.9 0 352 0S100.6 112.6 100.6 251.4c0 93.2 50.7 174.6 126.1 218-47.2 17.9-90.3 46.1-126.5 83.2C35.6 618.7 0 706.1 0 798.5l0 169.7C0 999 25 1024 55.7 1024l592.5 0c30.7 0 55.7-25 55.7-55.7l0-52.8C704 897.8 689.7 883.5 672 883.5zM164.6 251.4c0-50.1 19.5-97.1 54.9-132.5C254.9 83.5 301.9 64 352 64c50.1 0 97.1 19.5 132.5 54.9 35.4 35.4 54.9 82.5 54.9 132.5 0 50.1-19.5 97.1-54.9 132.5-35.4 35.4-82.5 54.9-132.5 54.9-50.1 0-97.1-19.5-132.5-54.9C184.1 348.6 164.6 301.5 164.6 251.4z" p-id="14903"></path><path d="M719.4 452.5l0 56.3c11.8-1.4 24.7-4.8 38.8-10.5 14.1-5.6 25.2-12 33.3-19L791.5 727l66 0L857.5 405.4l-41.9 0C788.7 426 756.5 441.7 719.4 452.5z" p-id="14904"></path></svg>