<?xml version="1.0" standalone="no"?><!DOCTYPE svg PUBLIC "-//W3C//DTD SVG 1.1//EN" "http://www.w3.org/Graphics/SVG/1.1/DTD/svg11.dtd"><svg t="1661666466964" class="icon" viewBox="0 0 1024 1024" version="1.1" xmlns="http://www.w3.org/2000/svg" p-id="13003" xmlns:xlink="http://www.w3.org/1999/xlink" width="64" height="64"><path d="M782.867104 542.188556l-189.495842 0c-6.02625 0-11.763928 1.203408-16.997116 3.381004-19.9821 4.288676-34.94693 22.050202-34.94693 43.301202l0 194.757682c0 96.895841 78.831416 175.727257 175.712931 175.727257l65.726957 0c96.895841 0 175.727257-78.831416 175.727257-175.727257l0-65.726957C958.594361 621.012809 879.762945 542.188556 782.867104 542.188556zM870.018 783.628444c0 48.051389-39.098483 87.149872-87.149872 87.149872l-65.726957 0c-48.051389 0-87.135546-39.098483-87.135546-87.149872L630.005624 630.765941l152.862503 0c48.051389 0 87.149872 39.09132 87.149872 87.135546L870.018 783.628444z" p-id="13004"></path><path d="M447.603341 545.562397c-5.218862-2.169409-10.970866-3.373841-16.98279-3.373841L241.131873 542.188556c-96.895841 0-175.727257 78.824253-175.727257 175.712931l0 65.726957c0 96.895841 78.831416 175.727257 175.727257 175.727257l65.726957 0c96.895841 0 175.720094-78.831416 175.720094-175.727257L482.578923 588.870762C482.578923 567.605436 467.599767 549.84391 447.603341 545.562397zM394.001539 783.628444c0 48.051389-39.09132 87.149872-87.142709 87.149872l-65.726957 0c-48.051389 0-87.149872-39.098483-87.149872-87.149872l0-65.726957c0-48.044226 39.098483-87.135546 87.149872-87.135546l152.869666 0L394.001539 783.628444z" p-id="13005"></path><path d="M241.131873 481.811444l189.487655 0c6.02625 0 11.763928-1.203408 16.997116-3.381004 19.9821-4.288676 34.94693-22.050202 34.94693-43.301202L482.563574 240.35723c0-96.888677-78.824253-175.712931-175.705767-175.712931l-65.726957 0c-96.895841 0-175.727257 78.824253-175.727257 175.712931l0 65.741283C65.404616 402.987191 144.236032 481.811444 241.131873 481.811444zM153.982 240.35723c0-48.044226 39.098483-87.135546 87.149872-87.135546l65.726957 0c48.044226 0 87.128383 39.09132 87.128383 87.135546l0 152.87683L241.131873 393.234059c-48.051389 0-87.149872-39.09132-87.149872-87.135546L153.982 240.35723z" p-id="13006"></path><path d="M782.867104 64.644299l-65.726957 0c-96.895841 0-175.727257 78.824253-175.727257 175.712931l0 194.772009c0 21.265326 14.979156 39.026852 34.975583 43.308365 5.218862 2.169409 10.970866 3.373841 16.98279 3.373841l189.495842 0c96.895841 0 175.727257-78.824253 175.727257-175.712931L958.594361 240.35723C958.594361 143.468552 879.762945 64.644299 782.867104 64.644299zM870.018 306.098513c0 48.044226-39.098483 87.135546-87.149872 87.135546L629.991298 393.234059 629.991298 240.35723c0-48.044226 39.098483-87.135546 87.149872-87.135546l65.726957 0c48.051389 0 87.149872 39.09132 87.149872 87.135546L870.018 306.098513z" p-id="13007"></path></svg>