<svg t="1662721714960" class="icon" viewBox="0 0 1024 1024" version="1.1" xmlns="http://www.w3.org/2000/svg" p-id="2406" width="64" height="64"><path d="M798.500571 278.893714A73.069714 73.069714 0 0 1 841.142857 146.285714a73.142857 73.142857 0 0 1 30.573714 139.629715 365.860571 365.860571 0 0 1-719.433142 0 73.142857 73.142857 0 1 1 73.142857-7.021715 292.644571 292.644571 0 0 0 573.074285 0zM694.857143 73.142857a36.571429 36.571429 0 0 1 0-73.142857h219.428571A109.714286 109.714286 0 0 1 1024 109.714286v804.571428a109.714286 109.714286 0 0 1-109.714286 109.714286h-804.571428A109.714286 109.714286 0 0 1 0 914.285714v-804.571428A109.714286 109.714286 0 0 1 109.714286 0h219.428571a36.571429 36.571429 0 0 1 0 73.142857h-219.428571a36.571429 36.571429 0 0 0-36.571429 36.571429v804.571428a36.571429 36.571429 0 0 0 36.571429 36.571429h804.571428a36.571429 36.571429 0 0 0 36.571429-36.571429v-804.571428a36.571429 36.571429 0 0 0-36.571429-36.571429h-219.428571z" fill="#bfcbd9" p-id="2407"></path></svg>