<?xml version="1.0" standalone="no"?><!DOCTYPE svg PUBLIC "-//W3C//DTD SVG 1.1//EN" "http://www.w3.org/Graphics/SVG/1.1/DTD/svg11.dtd"><svg t="1661667690362" class="icon" viewBox="0 0 1024 1024" version="1.1" xmlns="http://www.w3.org/2000/svg" p-id="20390" xmlns:xlink="http://www.w3.org/1999/xlink" width="64" height="64"><path d="M876.088889 219.022222H147.911111v637.155556l422.912-422.968889a45.511111 45.511111 0 0 1 64.284445 0l240.981333 241.379555V219.022222zM56.888889 173.169778a45.511111 45.511111 0 0 1 45.169778-45.169778h819.882666c24.974222 0 45.169778 20.252444 45.169778 45.169778v728.860444a45.511111 45.511111 0 0 1-45.169778 45.169778H102.058667A45.169778 45.169778 0 0 1 56.888889 902.030222V173.169778zM329.955556 492.088889a91.022222 91.022222 0 1 1 0-182.044445 91.022222 91.022222 0 0 1 0 182.044445z" p-id="20391"></path></svg>