<?xml version="1.0" standalone="no"?><!DOCTYPE svg PUBLIC "-//W3C//DTD SVG 1.1//EN" "http://www.w3.org/Graphics/SVG/1.1/DTD/svg11.dtd"><svg t="1661666864771" class="icon" viewBox="0 0 1024 1024" version="1.1" xmlns="http://www.w3.org/2000/svg" p-id="17365" xmlns:xlink="http://www.w3.org/1999/xlink" width="64" height="64"><path d="M911.36 937.472H106.496c-7.168 0-13.824-3.072-18.944-8.192-4.608-5.12-7.168-12.288-6.656-19.456L137.728 88.064c1.024-13.312 12.288-24.064 25.6-24.064h690.688c13.312 0 24.576 10.24 25.6 24.064L936.96 910.336c0.512 7.168-2.048 13.824-6.656 19.456-5.12 4.608-11.776 7.68-18.944 7.68z m-777.216-51.2h750.08L829.952 115.2H187.392L134.144 886.272z" p-id="17366"></path><path d="M508.928 389.12C400.384 389.12 312.32 301.056 312.32 193.024c0-14.336 11.264-25.6 25.6-25.6s25.6 11.264 25.6 25.6C363.52 272.896 428.544 337.92 508.928 337.92c79.872 0 144.896-65.024 144.896-144.896 0-14.336 11.264-25.6 25.6-25.6s25.6 11.264 25.6 25.6c0 108.032-88.064 196.096-196.096 196.096zM508.928 783.36c-81.408 0-147.456-66.048-147.456-147.456s66.048-147.456 147.456-147.456 147.456 66.048 147.456 147.456S590.336 783.36 508.928 783.36z m0-243.712c-53.248 0-96.256 43.008-96.256 96.256S455.68 732.16 508.928 732.16s96.256-43.008 96.256-96.256-43.008-96.256-96.256-96.256z" p-id="17367"></path><path d="M507.392 521.216c-14.336 0-25.6-11.264-25.6-25.6v-44.032c0-14.336 11.264-25.6 25.6-25.6s25.6 11.264 25.6 25.6v44.032c0 14.336-11.264 25.6-25.6 25.6zM407.552 562.688c-6.656 0-13.312-2.56-17.92-7.68l-30.72-30.72c-10.24-10.24-10.24-26.112 0-36.352s26.112-10.24 36.352 0l30.72 30.72c10.24 10.24 10.24 26.112 0 36.352-5.12 5.12-11.776 7.68-18.432 7.68zM367.104 663.04h-43.008c-14.336 0-25.6-11.264-25.6-25.6s11.264-25.6 25.6-25.6h43.008c14.336 0 25.6 11.264 25.6 25.6s-11.264 25.6-25.6 25.6zM377.856 793.6c-6.656 0-13.312-2.56-18.432-7.68-9.728-10.24-9.728-26.112 0.512-36.352l32.256-31.232c10.24-9.728 26.112-9.728 36.352 0.512 9.728 10.24 9.728 26.112-0.512 36.352l-32.256 31.232c-5.12 4.608-11.264 7.168-17.92 7.168zM510.464 847.872c-14.336 0-25.6-11.264-25.6-25.6V778.24c0-14.336 11.264-25.6 25.6-25.6s25.6 11.264 25.6 25.6v44.032c0 14.336-11.264 25.6-25.6 25.6zM641.024 793.088c-6.656 0-13.312-2.56-18.432-7.68l-31.232-31.744c-9.728-10.24-9.728-26.112 0.512-36.352 10.24-9.728 26.112-9.728 36.352 0.512l31.232 31.744c9.728 10.24 9.728 26.112-0.512 36.352-5.12 4.608-11.264 7.168-17.92 7.168zM694.784 660.48h-43.52c-14.336 0-25.6-11.264-25.6-25.6s11.264-25.6 25.6-25.6h43.52c14.336 0 25.6 11.264 25.6 25.6s-11.264 25.6-25.6 25.6zM608.768 561.664c-6.656 0-12.8-2.56-17.92-7.168-10.24-9.728-10.24-26.112-0.512-36.352l31.744-32.256c9.728-10.24 26.112-10.24 36.352-0.512s10.24 26.112 0.512 36.352l-31.744 32.256c-5.12 5.12-11.776 7.68-18.432 7.68z" p-id="17368"></path></svg>