<?xml version="1.0" standalone="no"?><!DOCTYPE svg PUBLIC "-//W3C//DTD SVG 1.1//EN" "http://www.w3.org/Graphics/SVG/1.1/DTD/svg11.dtd"><svg t="1661666349616" class="icon" viewBox="0 0 1024 1024" version="1.1" xmlns="http://www.w3.org/2000/svg" p-id="12041" xmlns:xlink="http://www.w3.org/1999/xlink" width="64" height="64"><path d="M679.776 992a1995.104 1995.104 0 0 1-225.936-8.528 35.408 35.408 0 0 1-30.272-40.48 36.496 36.496 0 0 1 42.08-29.12c39.872 6.4 151.36 8.528 312.32 7.104a68.8 68.8 0 0 0 67.2-58.224l39.872-315.984a64 64 0 0 0-16.976-51.84 70.064 70.064 0 0 0-51.68-22.016h-192a40 40 0 0 1-28.8-12.8 33.328 33.328 0 0 1-7.376-29.824l11.072-51.2c18.464-85.92 37.648-174.672 28.8-208-9.6-36.208-26.576-63.904-35.44-68.16-25.84 1.424-27.312 55.392-27.312 66.032a288.24 288.24 0 0 1-9.6 70.288 454.096 454.096 0 0 1-194.912 269.824 60.32 60.32 0 0 0-27.312 50.416l1.472 348.64a32.72 32.72 0 0 1-11.072 24.848 38.4 38.4 0 0 1-25.84 10.656H100.912A35.872 35.872 0 0 1 64 908.128V512a36.944 36.944 0 0 1 73.84 0v360.704h124.8l-1.472-313.136a130.512 130.512 0 0 1 59.808-109.344 383.856 383.856 0 0 0 164.656-227.936 221.136 221.136 0 0 0 7.376-53.248C493.008 84.544 532.144 32 594.896 32c69.408 0 98.944 93.728 106.32 122.128 12.544 48.992-5.168 132.8-28.8 239.296a34.4 34.4 0 0 0-1.472 8.528h146.928a144.72 144.72 0 0 1 106.32 46.16 130.992 130.992 0 0 1 34.704 107.2l-39.872 315.984a141.072 141.072 0 0 1-139.552 120C747.696 992 713.728 992 679.776 992z" p-id="12042"></path></svg>