<?xml version="1.0" standalone="no"?><!DOCTYPE svg PUBLIC "-//W3C//DTD SVG 1.1//EN" "http://www.w3.org/Graphics/SVG/1.1/DTD/svg11.dtd"><svg t="1661666533350" class="icon" viewBox="0 0 1024 1024" version="1.1" xmlns="http://www.w3.org/2000/svg" p-id="13931" xmlns:xlink="http://www.w3.org/1999/xlink" width="64" height="64"><path d="M387.543454 210.229049c17.253966 0 31.234375-13.980409 31.234375-31.234375L418.777829 164.601872l187.403181 0 0 14.393825c0 17.253966 13.980409 31.234375 31.234375 31.234375s31.233352-13.980409 31.233352-31.234375L668.648736 95.704712c0-17.253966-13.980409-31.233352-31.233352-31.233352s-31.234375 13.980409-31.234375 31.233352l0 6.42841L418.777829 102.133122l0-6.42841c0-17.253966-13.980409-31.233352-31.234375-31.233352-17.253966 0-31.233352 13.980409-31.233352 31.233352l0 83.289961C356.310102 196.248639 370.290511 210.229049 387.543454 210.229049z" p-id="13932"></path><path d="M401.005047 311.017546c-17.253966 0-31.234375 13.980409-31.234375 31.234375L369.770671 372.721887c0 17.253966 13.980409 31.234375 31.234375 31.234375s31.233352-13.980409 31.233352-31.234375l0-30.470989C432.239422 324.996932 418.259012 311.017546 401.005047 311.017546z" p-id="13933"></path><path d="M623.952768 311.017546c-17.253966 0-31.233352 13.980409-31.233352 31.234375L592.719416 372.721887c0 17.253966 13.980409 31.234375 31.233352 31.234375s31.234375-13.980409 31.234375-31.234375l0-30.470989C655.187143 324.996932 641.206734 311.017546 623.952768 311.017546z" p-id="13934"></path><path d="M546.344203 461.228663c-0.132006 0.193405-13.614066 19.754926-34.172287 19.754926-19.989263 0-32.423457-18.098193-33.267685-19.36914-9.17087-14.427594-28.254507-18.809391-42.834574-9.770528-14.650675 9.109472-19.155269 28.367071-10.055007 43.017746 11.214413 18.047028 41.970904 48.589648 86.157265 48.589648 43.963281 0 75.105558-30.318516 86.574774-48.223305 9.222035-14.396895 5.03262-33.358759-9.242502-42.763966C575.199391 443.070094 555.912116 447.065082 546.344203 461.228663z" p-id="13935"></path><path d="M758.781546 102.100376c-17.253966 0-31.234375 13.980409-31.234375 31.233352s13.980409 31.233352 31.234375 31.233352c41.827641 0 75.857688 34.864042 75.857688 77.708849l0 577.389266c0 42.844807-34.030048 77.708849-75.857688 77.708849l-492.614487-0.061398c-41.818431 0-75.847455-34.864042-75.847455-77.708849L190.319603 242.215554c0-42.844807 34.030048-77.708849 75.847455-77.708849 17.253966 0 31.233352-13.980409 31.233352-31.233352s-13.980409-31.233352-31.233352-31.233352c-76.264964 0-138.315182 62.884213-138.315182 140.176576l0 577.389266c0 77.29134 62.051241 140.176576 138.315182 140.176576l492.614487 0.061398c76.275197 0 138.325415-62.884213 138.325415-140.176576L897.106961 242.275929C897.106961 164.984588 835.056744 102.100376 758.781546 102.100376z" p-id="13936"></path><path d="M252.196883 793.260825c0 17.253966 13.980409 31.234375 31.233352 31.234375l458.096323 0c17.253966 0 31.233352-13.980409 31.233352-31.234375s-13.980409-31.233352-31.233352-31.233352L283.431258 762.027473C266.177292 762.027473 252.196883 776.006859 252.196883 793.260825z" p-id="13937"></path></svg>