<svg t="1662721979385" class="icon" viewBox="0 0 1024 1024" version="1.1" xmlns="http://www.w3.org/2000/svg" p-id="5612" width="64" height="64"><path d="M949.333333 938.666667h-874.666666c-17.066667 0-32-14.933333-32-32S57.6 874.666667 74.666667 874.666667h874.666666c17.066667 0 32 14.933333 32 32s-14.933333 32-32 32z" p-id="5613" fill="#bfcbd9"></path><path d="M701.866667 938.666667H106.666667V224C106.666667 147.2 168.533333 85.333333 245.333333 85.333333h317.866667c76.8 0 138.666667 61.866667 138.666667 138.666667V938.666667zM170.666667 874.666667h467.2V224c0-40.533333-34.133333-74.666667-74.666667-74.666667H245.333333C204.8 149.333333 170.666667 183.466667 170.666667 224V874.666667z" p-id="5614" fill="#bfcbd9"></path><path d="M917.333333 938.666667H674.133333v-64H853.333333V437.333333c0-40.533333-34.133333-74.666667-74.666666-74.666666h-104.533334v-64h104.533334c76.8 0 138.666667 61.866667 138.666666 138.666666V938.666667zM477.866667 381.866667h-149.333334c-17.066667 0-32-14.933333-32-32s14.933333-32 32-32h149.333334c17.066667 0 32 14.933333 32 32s-12.8 32-32 32zM477.866667 544h-149.333334c-17.066667 0-32-14.933333-32-32s14.933333-32 32-32h149.333334c17.066667 0 32 14.933333 32 32s-12.8 32-32 32zM477.866667 706.133333h-149.333334c-17.066667 0-32-14.933333-32-32s14.933333-32 32-32h149.333334c17.066667 0 32 14.933333 32 32s-12.8 32-32 32z" p-id="5615" fill="#bfcbd9"></path></svg>